<mxfile host="app.diagrams.net" agent="Mozilla/5.0 (Windows NT 10.0; Win64; x64) AppleWebKit/537.36 (KHTML, like Gecko) Chrome/131.0.0.0 Safari/537.36" version="26.0.11">
  <diagram name="ページ1" id="YD_AzV4COV0QOXyDQKuM">
    <mxGraphModel dx="794" dy="420" grid="1" gridSize="10" guides="1" tooltips="1" connect="1" arrows="1" fold="1" page="1" pageScale="1" pageWidth="827" pageHeight="1169" math="0" shadow="0">
      <root>
        <mxCell id="0" />
        <mxCell id="1" parent="0" />
        <mxCell id="-r_dBThd0Wz-GDRaI-Vy-1" value="" style="strokeWidth=2;html=1;shape=mxgraph.flowchart.start_2;whiteSpace=wrap;" parent="1" vertex="1">
          <mxGeometry x="320" y="60" width="40" height="40" as="geometry" />
        </mxCell>
        <mxCell id="-r_dBThd0Wz-GDRaI-Vy-5" value="OUT expr.token" style="rounded=1;whiteSpace=wrap;html=1;absoluteArcSize=1;arcSize=14;strokeWidth=2;" parent="1" vertex="1">
          <mxGeometry x="280" y="250" width="120" height="50" as="geometry" />
        </mxCell>
        <mxCell id="-r_dBThd0Wz-GDRaI-Vy-8" style="edgeStyle=orthogonalEdgeStyle;rounded=0;orthogonalLoop=1;jettySize=auto;html=1;entryX=0.5;entryY=0;entryDx=0;entryDy=0;" parent="1" source="-r_dBThd0Wz-GDRaI-Vy-7" target="-r_dBThd0Wz-GDRaI-Vy-5" edge="1">
          <mxGeometry relative="1" as="geometry" />
        </mxCell>
        <mxCell id="-r_dBThd0Wz-GDRaI-Vy-9" value="atom" style="edgeLabel;html=1;align=center;verticalAlign=middle;resizable=0;points=[];" parent="-r_dBThd0Wz-GDRaI-Vy-8" vertex="1" connectable="0">
          <mxGeometry x="-0.24" y="3" relative="1" as="geometry">
            <mxPoint as="offset" />
          </mxGeometry>
        </mxCell>
        <mxCell id="-r_dBThd0Wz-GDRaI-Vy-7" value="expr.type" style="strokeWidth=2;html=1;shape=mxgraph.flowchart.decision;whiteSpace=wrap;" parent="1" vertex="1">
          <mxGeometry x="290" y="150" width="100" height="50" as="geometry" />
        </mxCell>
        <mxCell id="-r_dBThd0Wz-GDRaI-Vy-10" style="edgeStyle=orthogonalEdgeStyle;rounded=0;orthogonalLoop=1;jettySize=auto;html=1;entryX=0.5;entryY=0;entryDx=0;entryDy=0;entryPerimeter=0;" parent="1" source="-r_dBThd0Wz-GDRaI-Vy-1" target="-r_dBThd0Wz-GDRaI-Vy-7" edge="1">
          <mxGeometry relative="1" as="geometry" />
        </mxCell>
        <mxCell id="-r_dBThd0Wz-GDRaI-Vy-19" style="edgeStyle=orthogonalEdgeStyle;rounded=0;orthogonalLoop=1;jettySize=auto;html=1;entryX=0.5;entryY=0;entryDx=0;entryDy=0;" parent="1" source="-r_dBThd0Wz-GDRaI-Vy-11" target="-r_dBThd0Wz-GDRaI-Vy-15" edge="1">
          <mxGeometry relative="1" as="geometry" />
        </mxCell>
        <mxCell id="-r_dBThd0Wz-GDRaI-Vy-23" value="ope2" style="edgeLabel;html=1;align=center;verticalAlign=middle;resizable=0;points=[];" parent="-r_dBThd0Wz-GDRaI-Vy-19" vertex="1" connectable="0">
          <mxGeometry x="-0.12" y="3" relative="1" as="geometry">
            <mxPoint as="offset" />
          </mxGeometry>
        </mxCell>
        <mxCell id="-r_dBThd0Wz-GDRaI-Vy-11" value="expr.type" style="strokeWidth=2;html=1;shape=mxgraph.flowchart.decision;whiteSpace=wrap;" parent="1" vertex="1">
          <mxGeometry x="450" y="150" width="100" height="50" as="geometry" />
        </mxCell>
        <mxCell id="-r_dBThd0Wz-GDRaI-Vy-36" style="edgeStyle=orthogonalEdgeStyle;rounded=0;orthogonalLoop=1;jettySize=auto;html=1;entryX=0.5;entryY=0;entryDx=0;entryDy=0;entryPerimeter=0;" parent="1" source="-r_dBThd0Wz-GDRaI-Vy-12" target="-r_dBThd0Wz-GDRaI-Vy-38" edge="1">
          <mxGeometry relative="1" as="geometry">
            <mxPoint x="780" y="551" as="targetPoint" />
          </mxGeometry>
        </mxCell>
        <mxCell id="-r_dBThd0Wz-GDRaI-Vy-12" value="expr.type" style="strokeWidth=2;html=1;shape=mxgraph.flowchart.decision;whiteSpace=wrap;" parent="1" vertex="1">
          <mxGeometry x="610" y="150" width="100" height="50" as="geometry" />
        </mxCell>
        <mxCell id="-r_dBThd0Wz-GDRaI-Vy-13" style="edgeStyle=orthogonalEdgeStyle;rounded=0;orthogonalLoop=1;jettySize=auto;html=1;entryX=0;entryY=0.5;entryDx=0;entryDy=0;entryPerimeter=0;" parent="1" source="-r_dBThd0Wz-GDRaI-Vy-7" target="-r_dBThd0Wz-GDRaI-Vy-11" edge="1">
          <mxGeometry relative="1" as="geometry" />
        </mxCell>
        <mxCell id="-r_dBThd0Wz-GDRaI-Vy-14" style="edgeStyle=orthogonalEdgeStyle;rounded=0;orthogonalLoop=1;jettySize=auto;html=1;entryX=0;entryY=0.5;entryDx=0;entryDy=0;entryPerimeter=0;" parent="1" source="-r_dBThd0Wz-GDRaI-Vy-11" target="-r_dBThd0Wz-GDRaI-Vy-12" edge="1">
          <mxGeometry relative="1" as="geometry" />
        </mxCell>
        <mxCell id="-r_dBThd0Wz-GDRaI-Vy-20" style="edgeStyle=orthogonalEdgeStyle;rounded=0;orthogonalLoop=1;jettySize=auto;html=1;entryX=0.5;entryY=0;entryDx=0;entryDy=0;" parent="1" source="-r_dBThd0Wz-GDRaI-Vy-15" target="-r_dBThd0Wz-GDRaI-Vy-16" edge="1">
          <mxGeometry relative="1" as="geometry" />
        </mxCell>
        <mxCell id="-r_dBThd0Wz-GDRaI-Vy-15" value="PUSH" style="rounded=1;whiteSpace=wrap;html=1;absoluteArcSize=1;arcSize=14;strokeWidth=2;" parent="1" vertex="1">
          <mxGeometry x="440" y="250" width="120" height="50" as="geometry" />
        </mxCell>
        <mxCell id="-r_dBThd0Wz-GDRaI-Vy-21" style="edgeStyle=orthogonalEdgeStyle;rounded=0;orthogonalLoop=1;jettySize=auto;html=1;entryX=0.5;entryY=0;entryDx=0;entryDy=0;" parent="1" source="-r_dBThd0Wz-GDRaI-Vy-16" target="-r_dBThd0Wz-GDRaI-Vy-17" edge="1">
          <mxGeometry relative="1" as="geometry" />
        </mxCell>
        <mxCell id="-r_dBThd0Wz-GDRaI-Vy-16" value="gen_outcircuit(expr.arg1)" style="rounded=1;whiteSpace=wrap;html=1;absoluteArcSize=1;arcSize=14;strokeWidth=2;" parent="1" vertex="1">
          <mxGeometry x="440" y="330" width="120" height="50" as="geometry" />
        </mxCell>
        <mxCell id="-r_dBThd0Wz-GDRaI-Vy-22" style="edgeStyle=orthogonalEdgeStyle;rounded=0;orthogonalLoop=1;jettySize=auto;html=1;entryX=0.5;entryY=0;entryDx=0;entryDy=0;" parent="1" source="-r_dBThd0Wz-GDRaI-Vy-17" target="-r_dBThd0Wz-GDRaI-Vy-18" edge="1">
          <mxGeometry relative="1" as="geometry" />
        </mxCell>
        <mxCell id="-r_dBThd0Wz-GDRaI-Vy-17" value="POP" style="rounded=1;whiteSpace=wrap;html=1;absoluteArcSize=1;arcSize=14;strokeWidth=2;" parent="1" vertex="1">
          <mxGeometry x="440" y="410" width="120" height="50" as="geometry" />
        </mxCell>
        <mxCell id="-r_dBThd0Wz-GDRaI-Vy-18" value="gen_outcircuit(expr.arg2)" style="rounded=1;whiteSpace=wrap;html=1;absoluteArcSize=1;arcSize=14;strokeWidth=2;" parent="1" vertex="1">
          <mxGeometry x="440" y="490" width="120" height="50" as="geometry" />
        </mxCell>
        <mxCell id="-r_dBThd0Wz-GDRaI-Vy-28" style="edgeStyle=orthogonalEdgeStyle;rounded=0;orthogonalLoop=1;jettySize=auto;html=1;entryX=0.5;entryY=0;entryDx=0;entryDy=0;" parent="1" source="-r_dBThd0Wz-GDRaI-Vy-25" target="-r_dBThd0Wz-GDRaI-Vy-27" edge="1">
          <mxGeometry relative="1" as="geometry" />
        </mxCell>
        <mxCell id="-r_dBThd0Wz-GDRaI-Vy-30" value="次の要素" style="edgeLabel;html=1;align=center;verticalAlign=middle;resizable=0;points=[];" parent="-r_dBThd0Wz-GDRaI-Vy-28" vertex="1" connectable="0">
          <mxGeometry x="-0.3" relative="1" as="geometry">
            <mxPoint as="offset" />
          </mxGeometry>
        </mxCell>
        <mxCell id="-r_dBThd0Wz-GDRaI-Vy-25" value="expr.list" style="strokeWidth=2;html=1;shape=mxgraph.flowchart.decision;whiteSpace=wrap;" parent="1" vertex="1">
          <mxGeometry x="610" y="240" width="100" height="50" as="geometry" />
        </mxCell>
        <mxCell id="-r_dBThd0Wz-GDRaI-Vy-26" style="edgeStyle=orthogonalEdgeStyle;rounded=0;orthogonalLoop=1;jettySize=auto;html=1;entryX=0.5;entryY=0;entryDx=0;entryDy=0;entryPerimeter=0;" parent="1" source="-r_dBThd0Wz-GDRaI-Vy-12" target="-r_dBThd0Wz-GDRaI-Vy-25" edge="1">
          <mxGeometry relative="1" as="geometry" />
        </mxCell>
        <mxCell id="-r_dBThd0Wz-GDRaI-Vy-27" value="gen_outcircuit(e)" style="rounded=1;whiteSpace=wrap;html=1;absoluteArcSize=1;arcSize=14;strokeWidth=2;" parent="1" vertex="1">
          <mxGeometry x="600" y="330" width="120" height="50" as="geometry" />
        </mxCell>
        <mxCell id="-r_dBThd0Wz-GDRaI-Vy-29" style="edgeStyle=orthogonalEdgeStyle;rounded=0;orthogonalLoop=1;jettySize=auto;html=1;entryX=1;entryY=0.5;entryDx=0;entryDy=0;entryPerimeter=0;" parent="1" source="-r_dBThd0Wz-GDRaI-Vy-27" target="-r_dBThd0Wz-GDRaI-Vy-25" edge="1">
          <mxGeometry relative="1" as="geometry">
            <Array as="points">
              <mxPoint x="660" y="400" />
              <mxPoint x="730" y="400" />
              <mxPoint x="730" y="265" />
            </Array>
          </mxGeometry>
        </mxCell>
        <mxCell id="-r_dBThd0Wz-GDRaI-Vy-31" value="" style="strokeWidth=2;html=1;shape=mxgraph.flowchart.terminator;whiteSpace=wrap;" parent="1" vertex="1">
          <mxGeometry x="480" y="610" width="40" height="20" as="geometry" />
        </mxCell>
        <mxCell id="-r_dBThd0Wz-GDRaI-Vy-32" style="edgeStyle=orthogonalEdgeStyle;rounded=0;orthogonalLoop=1;jettySize=auto;html=1;entryX=0.5;entryY=0;entryDx=0;entryDy=0;entryPerimeter=0;" parent="1" source="-r_dBThd0Wz-GDRaI-Vy-5" target="-r_dBThd0Wz-GDRaI-Vy-31" edge="1">
          <mxGeometry relative="1" as="geometry">
            <Array as="points">
              <mxPoint x="340" y="580" />
              <mxPoint x="500" y="580" />
            </Array>
          </mxGeometry>
        </mxCell>
        <mxCell id="-r_dBThd0Wz-GDRaI-Vy-33" style="edgeStyle=orthogonalEdgeStyle;rounded=0;orthogonalLoop=1;jettySize=auto;html=1;entryX=0.5;entryY=0;entryDx=0;entryDy=0;entryPerimeter=0;" parent="1" source="-r_dBThd0Wz-GDRaI-Vy-18" target="-r_dBThd0Wz-GDRaI-Vy-31" edge="1">
          <mxGeometry relative="1" as="geometry" />
        </mxCell>
        <mxCell id="-r_dBThd0Wz-GDRaI-Vy-34" style="edgeStyle=orthogonalEdgeStyle;rounded=0;orthogonalLoop=1;jettySize=auto;html=1;entryX=0.5;entryY=0;entryDx=0;entryDy=0;entryPerimeter=0;" parent="1" source="-r_dBThd0Wz-GDRaI-Vy-25" target="-r_dBThd0Wz-GDRaI-Vy-31" edge="1">
          <mxGeometry relative="1" as="geometry">
            <Array as="points">
              <mxPoint x="580" y="265" />
              <mxPoint x="580" y="580" />
              <mxPoint x="500" y="580" />
            </Array>
          </mxGeometry>
        </mxCell>
        <mxCell id="-r_dBThd0Wz-GDRaI-Vy-35" value="リスト終端" style="edgeLabel;html=1;align=center;verticalAlign=middle;resizable=0;points=[];" parent="-r_dBThd0Wz-GDRaI-Vy-34" vertex="1" connectable="0">
          <mxGeometry x="-0.6835" y="-1" relative="1" as="geometry">
            <mxPoint as="offset" />
          </mxGeometry>
        </mxCell>
        <mxCell id="-r_dBThd0Wz-GDRaI-Vy-38" value="" style="strokeWidth=2;html=1;shape=mxgraph.flowchart.terminator;whiteSpace=wrap;" parent="1" vertex="1">
          <mxGeometry x="760" y="550" width="40" height="20" as="geometry" />
        </mxCell>
        <UserObject label="&lt;svg zoomAndPan=&quot;magnify&quot; width=&quot;542px&quot; viewBox=&quot;0 0 542 397&quot; version=&quot;1.1&quot; style=&quot;width:542px;height:397px;background:#FFFFFF;&quot; preserveAspectRatio=&quot;none&quot; height=&quot;397px&quot; xmlns:xlink=&quot;http://www.w3.org/1999/xlink&quot; xmlns=&quot;http://www.w3.org/2000/svg&quot;&gt;&lt;defs&gt;&lt;/defs&gt;&lt;g&gt;&lt;ellipse style=&quot;stroke:#222222;stroke-width:1.0;&quot; ry=&quot;10&quot; rx=&quot;10&quot; fill=&quot;#222222&quot; cy=&quot;20&quot; cx=&quot;275&quot;&gt;&lt;/ellipse&gt;&lt;polygon style=&quot;stroke:#181818;stroke-width:0.5;&quot; points=&quot;42.5,50,95.5,50,107.5,62,95.5,74,42.5,74,30.5,62,42.5,50&quot; fill=&quot;#F1F1F1&quot;&gt;&lt;/polygon&gt;&lt;text y=&quot;84.2104&quot; x=&quot;73&quot; textLength=&quot;29&quot; lengthAdjust=&quot;spacing&quot; font-size=&quot;11&quot; font-family=&quot;sans-serif&quot; fill=&quot;#000000&quot;&gt;atom&lt;/text&gt;&lt;text y=&quot;65.8081&quot; x=&quot;42.5&quot; textLength=&quot;53&quot; lengthAdjust=&quot;spacing&quot; font-size=&quot;11&quot; font-family=&quot;sans-serif&quot; fill=&quot;#000000&quot;&gt;expr.type&lt;/text&gt;&lt;rect y=&quot;105.7104&quot; x=&quot;11&quot; width=&quot;116&quot; style=&quot;stroke:#181818;stroke-width:0.5;&quot; ry=&quot;12.5&quot; rx=&quot;12.5&quot; height=&quot;33.9688&quot; fill=&quot;#F1F1F1&quot;&gt;&lt;/rect&gt;&lt;text y=&quot;126.8491&quot; x=&quot;21&quot; textLength=&quot;96&quot; lengthAdjust=&quot;spacing&quot; font-size=&quot;12&quot; font-family=&quot;sans-serif&quot; fill=&quot;#000000&quot;&gt;OUT expr.token&lt;/text&gt;&lt;polygon style=&quot;stroke:#181818;stroke-width:0.5;&quot; points=&quot;200,50,253,50,265,62,253,74,200,74,188,62,200,50&quot; fill=&quot;#F1F1F1&quot;&gt;&lt;/polygon&gt;&lt;text y=&quot;84.2104&quot; x=&quot;230.5&quot; textLength=&quot;28&quot; lengthAdjust=&quot;spacing&quot; font-size=&quot;11&quot; font-family=&quot;sans-serif&quot; fill=&quot;#000000&quot;&gt;ope2&lt;/text&gt;&lt;text y=&quot;65.8081&quot; x=&quot;200&quot; textLength=&quot;53&quot; lengthAdjust=&quot;spacing&quot; font-size=&quot;11&quot; font-family=&quot;sans-serif&quot; fill=&quot;#000000&quot;&gt;expr.type&lt;/text&gt;&lt;rect y=&quot;105.7104&quot; x=&quot;199.5&quot; width=&quot;54&quot; style=&quot;stroke:#181818;stroke-width:0.5;&quot; ry=&quot;12.5&quot; rx=&quot;12.5&quot; height=&quot;33.9688&quot; fill=&quot;#F1F1F1&quot;&gt;&lt;/rect&gt;&lt;text y=&quot;126.8491&quot; x=&quot;209.5&quot; textLength=&quot;34&quot; lengthAdjust=&quot;spacing&quot; font-size=&quot;12&quot; font-family=&quot;sans-serif&quot; fill=&quot;#000000&quot;&gt;PUSH&lt;/text&gt;&lt;rect y=&quot;169.585&quot; x=&quot;137&quot; width=&quot;179&quot; style=&quot;stroke:#181818;stroke-width:0.5;&quot; ry=&quot;12.5&quot; rx=&quot;12.5&quot; height=&quot;33.9688&quot; fill=&quot;#F1F1F1&quot;&gt;&lt;/rect&gt;&lt;text y=&quot;190.7236&quot; x=&quot;147&quot; textLength=&quot;159&quot; lengthAdjust=&quot;spacing&quot; font-size=&quot;12&quot; font-family=&quot;sans-serif&quot; fill=&quot;#000000&quot;&gt;gen_outcircuit(expr.arg1)&lt;/text&gt;&lt;rect y=&quot;238.5537&quot; x=&quot;204&quot; width=&quot;45&quot; style=&quot;stroke:#181818;stroke-width:0.5;&quot; ry=&quot;12.5&quot; rx=&quot;12.5&quot; height=&quot;33.9688&quot; fill=&quot;#F1F1F1&quot;&gt;&lt;/rect&gt;&lt;text y=&quot;259.6924&quot; x=&quot;214&quot; textLength=&quot;25&quot; lengthAdjust=&quot;spacing&quot; font-size=&quot;12&quot; font-family=&quot;sans-serif&quot; fill=&quot;#000000&quot;&gt;POP&lt;/text&gt;&lt;rect y=&quot;292.5225&quot; x=&quot;137&quot; width=&quot;179&quot; style=&quot;stroke:#181818;stroke-width:0.5;&quot; ry=&quot;12.5&quot; rx=&quot;12.5&quot; height=&quot;33.9688&quot; fill=&quot;#F1F1F1&quot;&gt;&lt;/rect&gt;&lt;text y=&quot;313.6611&quot; x=&quot;147&quot; textLength=&quot;159&quot; lengthAdjust=&quot;spacing&quot; font-size=&quot;12&quot; font-family=&quot;sans-serif&quot; fill=&quot;#000000&quot;&gt;gen_outcircuit(expr.arg2)&lt;/text&gt;&lt;polygon style=&quot;stroke:#181818;stroke-width:0.5;&quot; points=&quot;389.5,50,442.5,50,454.5,62,442.5,74,389.5,74,377.5,62,389.5,50&quot; fill=&quot;#F1F1F1&quot;&gt;&lt;/polygon&gt;&lt;text y=&quot;84.2104&quot; x=&quot;420&quot; textLength=&quot;17&quot; lengthAdjust=&quot;spacing&quot; font-size=&quot;11&quot; font-family=&quot;sans-serif&quot; fill=&quot;#000000&quot;&gt;list&lt;/text&gt;&lt;text y=&quot;65.8081&quot; x=&quot;389.5&quot; textLength=&quot;53&quot; lengthAdjust=&quot;spacing&quot; font-size=&quot;11&quot; font-family=&quot;sans-serif&quot; fill=&quot;#000000&quot;&gt;expr.type&lt;/text&gt;&lt;rect y=&quot;161.4209&quot; x=&quot;352.5&quot; width=&quot;127&quot; style=&quot;stroke:#181818;stroke-width:0.5;&quot; ry=&quot;12.5&quot; rx=&quot;12.5&quot; height=&quot;33.9688&quot; fill=&quot;#F1F1F1&quot;&gt;&lt;/rect&gt;&lt;text y=&quot;182.5596&quot; x=&quot;362.5&quot; textLength=&quot;107&quot; lengthAdjust=&quot;spacing&quot; font-size=&quot;12&quot; font-family=&quot;sans-serif&quot; fill=&quot;#000000&quot;&gt;gen_outcircuit(e)&lt;/text&gt;&lt;polygon style=&quot;stroke:#181818;stroke-width:0.5;&quot; points=&quot;393,105.7104,439,105.7104,451,117.7104,439,129.7104,393,129.7104,381,117.7104,393,105.7104&quot; fill=&quot;#F1F1F1&quot;&gt;&lt;/polygon&gt;&lt;text y=&quot;139.9209&quot; x=&quot;420&quot; textLength=&quot;44&quot; lengthAdjust=&quot;spacing&quot; font-size=&quot;11&quot; font-family=&quot;sans-serif&quot; fill=&quot;#000000&quot;&gt;次の要素&lt;/text&gt;&lt;text y=&quot;121.5186&quot; x=&quot;393&quot; textLength=&quot;46&quot; lengthAdjust=&quot;spacing&quot; font-size=&quot;11&quot; font-family=&quot;sans-serif&quot; fill=&quot;#000000&quot;&gt;expr.list&lt;/text&gt;&lt;text y=&quot;115.1162&quot; x=&quot;326&quot; textLength=&quot;55&quot; lengthAdjust=&quot;spacing&quot; font-size=&quot;11&quot; font-family=&quot;sans-serif&quot; fill=&quot;#000000&quot;&gt;リスト終端&lt;/text&gt;&lt;ellipse style=&quot;stroke:#222222;stroke-width:1.0;&quot; ry=&quot;11&quot; rx=&quot;11&quot; fill=&quot;none&quot; cy=&quot;217.6514&quot; cx=&quot;516.5&quot;&gt;&lt;/ellipse&gt;&lt;ellipse style=&quot;stroke:#111111;stroke-width:1.0;&quot; ry=&quot;6&quot; rx=&quot;6&quot; fill=&quot;#222222&quot; cy=&quot;217.6514&quot; cx=&quot;516.5&quot;&gt;&lt;/ellipse&gt;&lt;ellipse style=&quot;stroke:#222222;stroke-width:1.5;&quot; ry=&quot;10&quot; rx=&quot;10&quot; fill=&quot;none&quot; cy=&quot;376.4912&quot; cx=&quot;275&quot;&gt;&lt;/ellipse&gt;&lt;line y2=&quot;382.6784&quot; y1=&quot;370.304&quot; x2=&quot;281.1872&quot; x1=&quot;268.8128&quot; style=&quot;stroke:#222222;stroke-width:2.5;&quot;&gt;&lt;/line&gt;&lt;line y2=&quot;382.6784&quot; y1=&quot;370.304&quot; x2=&quot;268.8128&quot; x1=&quot;281.1872&quot; style=&quot;stroke:#222222;stroke-width:2.5;&quot;&gt;&lt;/line&gt;&lt;line y2=&quot;169.585&quot; y1=&quot;139.6792&quot; x2=&quot;226.5&quot; x1=&quot;226.5&quot; style=&quot;stroke:#181818;stroke-width:1.0;&quot;&gt;&lt;/line&gt;&lt;polygon style=&quot;stroke:#181818;stroke-width:1.0;&quot; points=&quot;222.5,159.585,226.5,169.585,230.5,159.585,226.5,163.585&quot; fill=&quot;#181818&quot;&gt;&lt;/polygon&gt;&lt;line y2=&quot;238.5537&quot; y1=&quot;203.5537&quot; x2=&quot;226.5&quot; x1=&quot;226.5&quot; style=&quot;stroke:#181818;stroke-width:1.0;&quot;&gt;&lt;/line&gt;&lt;polygon style=&quot;stroke:#181818;stroke-width:1.0;&quot; points=&quot;222.5,228.5537,226.5,238.5537,230.5,228.5537,226.5,232.5537&quot; fill=&quot;#181818&quot;&gt;&lt;/polygon&gt;&lt;line y2=&quot;292.5225&quot; y1=&quot;272.5225&quot; x2=&quot;226.5&quot; x1=&quot;226.5&quot; style=&quot;stroke:#181818;stroke-width:1.0;&quot;&gt;&lt;/line&gt;&lt;polygon style=&quot;stroke:#181818;stroke-width:1.0;&quot; points=&quot;222.5,282.5225,226.5,292.5225,230.5,282.5225,226.5,286.5225&quot; fill=&quot;#181818&quot;&gt;&lt;/polygon&gt;&lt;line y2=&quot;161.4209&quot; y1=&quot;129.7104&quot; x2=&quot;416&quot; x1=&quot;416&quot; style=&quot;stroke:#181818;stroke-width:1.0;&quot;&gt;&lt;/line&gt;&lt;polygon style=&quot;stroke:#181818;stroke-width:1.0;&quot; points=&quot;412,151.4209,416,161.4209,420,151.4209,416,155.4209&quot; fill=&quot;#181818&quot;&gt;&lt;/polygon&gt;&lt;line y2=&quot;207.3896&quot; y1=&quot;195.3896&quot; x2=&quot;416&quot; x1=&quot;416&quot; style=&quot;stroke:#181818;stroke-width:1.0;&quot;&gt;&lt;/line&gt;&lt;line y2=&quot;207.3896&quot; y1=&quot;207.3896&quot; x2=&quot;491.5&quot; x1=&quot;416&quot; style=&quot;stroke:#181818;stroke-width:1.0;&quot;&gt;&lt;/line&gt;&lt;polygon style=&quot;stroke:#181818;stroke-width:1.0;&quot; points=&quot;487.5,170.0029,491.5,160.0029,495.5,170.0029,491.5,166.0029&quot; fill=&quot;#181818&quot;&gt;&lt;/polygon&gt;&lt;line y2=&quot;207.3896&quot; y1=&quot;117.7104&quot; x2=&quot;491.5&quot; x1=&quot;491.5&quot; style=&quot;stroke:#181818;stroke-width:1.0;&quot;&gt;&lt;/line&gt;&lt;line y2=&quot;117.7104&quot; y1=&quot;117.7104&quot; x2=&quot;451&quot; x1=&quot;491.5&quot; style=&quot;stroke:#181818;stroke-width:1.0;&quot;&gt;&lt;/line&gt;&lt;polygon style=&quot;stroke:#181818;stroke-width:1.0;&quot; points=&quot;461,113.7104,451,117.7104,461,121.7104,457,117.7104&quot; fill=&quot;#181818&quot;&gt;&lt;/polygon&gt;&lt;line y2=&quot;117.7104&quot; y1=&quot;117.7104&quot; x2=&quot;340.5&quot; x1=&quot;381&quot; style=&quot;stroke:#181818;stroke-width:1.0;&quot;&gt;&lt;/line&gt;&lt;polygon style=&quot;stroke:#181818;stroke-width:1.0;&quot; points=&quot;336.5,156.0029,340.5,166.0029,344.5,156.0029,340.5,160.0029&quot; fill=&quot;#181818&quot;&gt;&lt;/polygon&gt;&lt;line y2=&quot;219.3896&quot; y1=&quot;117.7104&quot; x2=&quot;340.5&quot; x1=&quot;340.5&quot; style=&quot;stroke:#181818;stroke-width:1.0;&quot;&gt;&lt;/line&gt;&lt;line y2=&quot;219.3896&quot; y1=&quot;219.3896&quot; x2=&quot;416&quot; x1=&quot;340.5&quot; style=&quot;stroke:#181818;stroke-width:1.0;&quot;&gt;&lt;/line&gt;&lt;line y2=&quot;346.4912&quot; y1=&quot;219.3896&quot; x2=&quot;416&quot; x1=&quot;416&quot; style=&quot;stroke:#181818;stroke-width:1.0;&quot;&gt;&lt;/line&gt;&lt;polygon style=&quot;stroke:#181818;stroke-width:1.0;&quot; points=&quot;412,336.4912,416,346.4912,420,336.4912,416,340.4912&quot; fill=&quot;#181818&quot;&gt;&lt;/polygon&gt;&lt;line y2=&quot;105.7104&quot; y1=&quot;74&quot; x2=&quot;69&quot; x1=&quot;69&quot; style=&quot;stroke:#181818;stroke-width:1.0;&quot;&gt;&lt;/line&gt;&lt;polygon style=&quot;stroke:#181818;stroke-width:1.0;&quot; points=&quot;65,95.7104,69,105.7104,73,95.7104,69,99.7104&quot; fill=&quot;#181818&quot;&gt;&lt;/polygon&gt;&lt;line y2=&quot;346.4912&quot; y1=&quot;139.6792&quot; x2=&quot;69&quot; x1=&quot;69&quot; style=&quot;stroke:#181818;stroke-width:1.0;&quot;&gt;&lt;/line&gt;&lt;polygon style=&quot;stroke:#181818;stroke-width:1.0;&quot; points=&quot;65,336.4912,69,346.4912,73,336.4912,69,340.4912&quot; fill=&quot;#181818&quot;&gt;&lt;/polygon&gt;&lt;line y2=&quot;105.7104&quot; y1=&quot;74&quot; x2=&quot;226.5&quot; x1=&quot;226.5&quot; style=&quot;stroke:#181818;stroke-width:1.0;&quot;&gt;&lt;/line&gt;&lt;polygon style=&quot;stroke:#181818;stroke-width:1.0;&quot; points=&quot;222.5,95.7104,226.5,105.7104,230.5,95.7104,226.5,99.7104&quot; fill=&quot;#181818&quot;&gt;&lt;/polygon&gt;&lt;line y2=&quot;346.4912&quot; y1=&quot;326.4912&quot; x2=&quot;226.5&quot; x1=&quot;226.5&quot; style=&quot;stroke:#181818;stroke-width:1.0;&quot;&gt;&lt;/line&gt;&lt;polygon style=&quot;stroke:#181818;stroke-width:1.0;&quot; points=&quot;222.5,336.4912,226.5,346.4912,230.5,336.4912,226.5,340.4912&quot; fill=&quot;#181818&quot;&gt;&lt;/polygon&gt;&lt;line y2=&quot;105.7104&quot; y1=&quot;74&quot; x2=&quot;416&quot; x1=&quot;416&quot; style=&quot;stroke:#181818;stroke-width:1.0;&quot;&gt;&lt;/line&gt;&lt;polygon style=&quot;stroke:#181818;stroke-width:1.0;&quot; points=&quot;412,95.7104,416,105.7104,420,95.7104,416,99.7104&quot; fill=&quot;#181818&quot;&gt;&lt;/polygon&gt;&lt;line y2=&quot;62&quot; y1=&quot;62&quot; x2=&quot;188&quot; x1=&quot;107.5&quot; style=&quot;stroke:#181818;stroke-width:1.0;&quot;&gt;&lt;/line&gt;&lt;polygon style=&quot;stroke:#181818;stroke-width:1.0;&quot; points=&quot;178,58,188,62,178,66,182,62&quot; fill=&quot;#181818&quot;&gt;&lt;/polygon&gt;&lt;line y2=&quot;62&quot; y1=&quot;62&quot; x2=&quot;377.5&quot; x1=&quot;265&quot; style=&quot;stroke:#181818;stroke-width:1.0;&quot;&gt;&lt;/line&gt;&lt;polygon style=&quot;stroke:#181818;stroke-width:1.0;&quot; points=&quot;367.5,58,377.5,62,367.5,66,371.5,62&quot; fill=&quot;#181818&quot;&gt;&lt;/polygon&gt;&lt;line y2=&quot;35&quot; y1=&quot;30&quot; x2=&quot;275&quot; x1=&quot;275&quot; style=&quot;stroke:#181818;stroke-width:1.0;&quot;&gt;&lt;/line&gt;&lt;line y2=&quot;35&quot; y1=&quot;35&quot; x2=&quot;69&quot; x1=&quot;275&quot; style=&quot;stroke:#181818;stroke-width:1.0;&quot;&gt;&lt;/line&gt;&lt;line y2=&quot;50&quot; y1=&quot;35&quot; x2=&quot;69&quot; x1=&quot;69&quot; style=&quot;stroke:#181818;stroke-width:1.0;&quot;&gt;&lt;/line&gt;&lt;polygon style=&quot;stroke:#181818;stroke-width:1.0;&quot; points=&quot;65,40,69,50,73,40,69,44&quot; fill=&quot;#181818&quot;&gt;&lt;/polygon&gt;&lt;line y2=&quot;62&quot; y1=&quot;62&quot; x2=&quot;516.5&quot; x1=&quot;454.5&quot; style=&quot;stroke:#181818;stroke-width:1.0;&quot;&gt;&lt;/line&gt;&lt;line y2=&quot;206.6514&quot; y1=&quot;62&quot; x2=&quot;516.5&quot; x1=&quot;516.5&quot; style=&quot;stroke:#181818;stroke-width:1.0;&quot;&gt;&lt;/line&gt;&lt;polygon style=&quot;stroke:#181818;stroke-width:1.0;&quot; points=&quot;512.5,196.6514,516.5,206.6514,520.5,196.6514,516.5,200.6514&quot; fill=&quot;#181818&quot;&gt;&lt;/polygon&gt;&lt;line y2=&quot;346.4912&quot; y1=&quot;346.4912&quot; x2=&quot;416&quot; x1=&quot;69&quot; style=&quot;stroke:#181818;stroke-width:1.0;&quot;&gt;&lt;/line&gt;&lt;line y2=&quot;366.4912&quot; y1=&quot;346.4912&quot; x2=&quot;275&quot; x1=&quot;275&quot; style=&quot;stroke:#181818;stroke-width:1.0;&quot;&gt;&lt;/line&gt;&lt;polygon style=&quot;stroke:#181818;stroke-width:1.0;&quot; points=&quot;271,356.4912,275,366.4912,279,356.4912,275,360.4912&quot; fill=&quot;#181818&quot;&gt;&lt;/polygon&gt;&lt;/g&gt;&lt;/svg&gt;" link="&lt;svg zoomAndPan=&quot;magnify&quot; width=&quot;542px&quot; viewBox=&quot;0 0 542 397&quot; version=&quot;1.1&quot; style=&quot;width:542px;height:397px;background:#FFFFFF;&quot; preserveAspectRatio=&quot;none&quot; height=&quot;397px&quot; xmlns:xlink=&quot;http://www.w3.org/1999/xlink&quot; xmlns=&quot;http://www.w3.org/2000/svg&quot;&gt;&lt;defs&gt;&lt;/defs&gt;&lt;g&gt;&lt;ellipse style=&quot;stroke:#222222;stroke-width:1.0;&quot; ry=&quot;10&quot; rx=&quot;10&quot; fill=&quot;#222222&quot; cy=&quot;20&quot; cx=&quot;275&quot;&gt;&lt;/ellipse&gt;&lt;polygon style=&quot;stroke:#181818;stroke-width:0.5;&quot; points=&quot;42.5,50,95.5,50,107.5,62,95.5,74,42.5,74,30.5,62,42.5,50&quot; fill=&quot;#F1F1F1&quot;&gt;&lt;/polygon&gt;&lt;text y=&quot;84.2104&quot; x=&quot;73&quot; textLength=&quot;29&quot; lengthAdjust=&quot;spacing&quot; font-size=&quot;11&quot; font-family=&quot;sans-serif&quot; fill=&quot;#000000&quot;&gt;atom&lt;/text&gt;&lt;text y=&quot;65.8081&quot; x=&quot;42.5&quot; textLength=&quot;53&quot; lengthAdjust=&quot;spacing&quot; font-size=&quot;11&quot; font-family=&quot;sans-serif&quot; fill=&quot;#000000&quot;&gt;expr.type&lt;/text&gt;&lt;rect y=&quot;105.7104&quot; x=&quot;11&quot; width=&quot;116&quot; style=&quot;stroke:#181818;stroke-width:0.5;&quot; ry=&quot;12.5&quot; rx=&quot;12.5&quot; height=&quot;33.9688&quot; fill=&quot;#F1F1F1&quot;&gt;&lt;/rect&gt;&lt;text y=&quot;126.8491&quot; x=&quot;21&quot; textLength=&quot;96&quot; lengthAdjust=&quot;spacing&quot; font-size=&quot;12&quot; font-family=&quot;sans-serif&quot; fill=&quot;#000000&quot;&gt;OUT expr.token&lt;/text&gt;&lt;polygon style=&quot;stroke:#181818;stroke-width:0.5;&quot; points=&quot;200,50,253,50,265,62,253,74,200,74,188,62,200,50&quot; fill=&quot;#F1F1F1&quot;&gt;&lt;/polygon&gt;&lt;text y=&quot;84.2104&quot; x=&quot;230.5&quot; textLength=&quot;28&quot; lengthAdjust=&quot;spacing&quot; font-size=&quot;11&quot; font-family=&quot;sans-serif&quot; fill=&quot;#000000&quot;&gt;ope2&lt;/text&gt;&lt;text y=&quot;65.8081&quot; x=&quot;200&quot; textLength=&quot;53&quot; lengthAdjust=&quot;spacing&quot; font-size=&quot;11&quot; font-family=&quot;sans-serif&quot; fill=&quot;#000000&quot;&gt;expr.type&lt;/text&gt;&lt;rect y=&quot;105.7104&quot; x=&quot;199.5&quot; width=&quot;54&quot; style=&quot;stroke:#181818;stroke-width:0.5;&quot; ry=&quot;12.5&quot; rx=&quot;12.5&quot; height=&quot;33.9688&quot; fill=&quot;#F1F1F1&quot;&gt;&lt;/rect&gt;&lt;text y=&quot;126.8491&quot; x=&quot;209.5&quot; textLength=&quot;34&quot; lengthAdjust=&quot;spacing&quot; font-size=&quot;12&quot; font-family=&quot;sans-serif&quot; fill=&quot;#000000&quot;&gt;PUSH&lt;/text&gt;&lt;rect y=&quot;169.585&quot; x=&quot;137&quot; width=&quot;179&quot; style=&quot;stroke:#181818;stroke-width:0.5;&quot; ry=&quot;12.5&quot; rx=&quot;12.5&quot; height=&quot;33.9688&quot; fill=&quot;#F1F1F1&quot;&gt;&lt;/rect&gt;&lt;text y=&quot;190.7236&quot; x=&quot;147&quot; textLength=&quot;159&quot; lengthAdjust=&quot;spacing&quot; font-size=&quot;12&quot; font-family=&quot;sans-serif&quot; fill=&quot;#000000&quot;&gt;gen_outcircuit(expr.arg1)&lt;/text&gt;&lt;rect y=&quot;238.5537&quot; x=&quot;204&quot; width=&quot;45&quot; style=&quot;stroke:#181818;stroke-width:0.5;&quot; ry=&quot;12.5&quot; rx=&quot;12.5&quot; height=&quot;33.9688&quot; fill=&quot;#F1F1F1&quot;&gt;&lt;/rect&gt;&lt;text y=&quot;259.6924&quot; x=&quot;214&quot; textLength=&quot;25&quot; lengthAdjust=&quot;spacing&quot; font-size=&quot;12&quot; font-family=&quot;sans-serif&quot; fill=&quot;#000000&quot;&gt;POP&lt;/text&gt;&lt;rect y=&quot;292.5225&quot; x=&quot;137&quot; width=&quot;179&quot; style=&quot;stroke:#181818;stroke-width:0.5;&quot; ry=&quot;12.5&quot; rx=&quot;12.5&quot; height=&quot;33.9688&quot; fill=&quot;#F1F1F1&quot;&gt;&lt;/rect&gt;&lt;text y=&quot;313.6611&quot; x=&quot;147&quot; textLength=&quot;159&quot; lengthAdjust=&quot;spacing&quot; font-size=&quot;12&quot; font-family=&quot;sans-serif&quot; fill=&quot;#000000&quot;&gt;gen_outcircuit(expr.arg2)&lt;/text&gt;&lt;polygon style=&quot;stroke:#181818;stroke-width:0.5;&quot; points=&quot;389.5,50,442.5,50,454.5,62,442.5,74,389.5,74,377.5,62,389.5,50&quot; fill=&quot;#F1F1F1&quot;&gt;&lt;/polygon&gt;&lt;text y=&quot;84.2104&quot; x=&quot;420&quot; textLength=&quot;17&quot; lengthAdjust=&quot;spacing&quot; font-size=&quot;11&quot; font-family=&quot;sans-serif&quot; fill=&quot;#000000&quot;&gt;list&lt;/text&gt;&lt;text y=&quot;65.8081&quot; x=&quot;389.5&quot; textLength=&quot;53&quot; lengthAdjust=&quot;spacing&quot; font-size=&quot;11&quot; font-family=&quot;sans-serif&quot; fill=&quot;#000000&quot;&gt;expr.type&lt;/text&gt;&lt;rect y=&quot;161.4209&quot; x=&quot;352.5&quot; width=&quot;127&quot; style=&quot;stroke:#181818;stroke-width:0.5;&quot; ry=&quot;12.5&quot; rx=&quot;12.5&quot; height=&quot;33.9688&quot; fill=&quot;#F1F1F1&quot;&gt;&lt;/rect&gt;&lt;text y=&quot;182.5596&quot; x=&quot;362.5&quot; textLength=&quot;107&quot; lengthAdjust=&quot;spacing&quot; font-size=&quot;12&quot; font-family=&quot;sans-serif&quot; fill=&quot;#000000&quot;&gt;gen_outcircuit(e)&lt;/text&gt;&lt;polygon style=&quot;stroke:#181818;stroke-width:0.5;&quot; points=&quot;393,105.7104,439,105.7104,451,117.7104,439,129.7104,393,129.7104,381,117.7104,393,105.7104&quot; fill=&quot;#F1F1F1&quot;&gt;&lt;/polygon&gt;&lt;text y=&quot;139.9209&quot; x=&quot;420&quot; textLength=&quot;44&quot; lengthAdjust=&quot;spacing&quot; font-size=&quot;11&quot; font-family=&quot;sans-serif&quot; fill=&quot;#000000&quot;&gt;次の要素&lt;/text&gt;&lt;text y=&quot;121.5186&quot; x=&quot;393&quot; textLength=&quot;46&quot; lengthAdjust=&quot;spacing&quot; font-size=&quot;11&quot; font-family=&quot;sans-serif&quot; fill=&quot;#000000&quot;&gt;expr.list&lt;/text&gt;&lt;text y=&quot;115.1162&quot; x=&quot;326&quot; textLength=&quot;55&quot; lengthAdjust=&quot;spacing&quot; font-size=&quot;11&quot; font-family=&quot;sans-serif&quot; fill=&quot;#000000&quot;&gt;リスト終端&lt;/text&gt;&lt;ellipse style=&quot;stroke:#222222;stroke-width:1.0;&quot; ry=&quot;11&quot; rx=&quot;11&quot; fill=&quot;none&quot; cy=&quot;217.6514&quot; cx=&quot;516.5&quot;&gt;&lt;/ellipse&gt;&lt;ellipse style=&quot;stroke:#111111;stroke-width:1.0;&quot; ry=&quot;6&quot; rx=&quot;6&quot; fill=&quot;#222222&quot; cy=&quot;217.6514&quot; cx=&quot;516.5&quot;&gt;&lt;/ellipse&gt;&lt;ellipse style=&quot;stroke:#222222;stroke-width:1.5;&quot; ry=&quot;10&quot; rx=&quot;10&quot; fill=&quot;none&quot; cy=&quot;376.4912&quot; cx=&quot;275&quot;&gt;&lt;/ellipse&gt;&lt;line y2=&quot;382.6784&quot; y1=&quot;370.304&quot; x2=&quot;281.1872&quot; x1=&quot;268.8128&quot; style=&quot;stroke:#222222;stroke-width:2.5;&quot;&gt;&lt;/line&gt;&lt;line y2=&quot;382.6784&quot; y1=&quot;370.304&quot; x2=&quot;268.8128&quot; x1=&quot;281.1872&quot; style=&quot;stroke:#222222;stroke-width:2.5;&quot;&gt;&lt;/line&gt;&lt;line y2=&quot;169.585&quot; y1=&quot;139.6792&quot; x2=&quot;226.5&quot; x1=&quot;226.5&quot; style=&quot;stroke:#181818;stroke-width:1.0;&quot;&gt;&lt;/line&gt;&lt;polygon style=&quot;stroke:#181818;stroke-width:1.0;&quot; points=&quot;222.5,159.585,226.5,169.585,230.5,159.585,226.5,163.585&quot; fill=&quot;#181818&quot;&gt;&lt;/polygon&gt;&lt;line y2=&quot;238.5537&quot; y1=&quot;203.5537&quot; x2=&quot;226.5&quot; x1=&quot;226.5&quot; style=&quot;stroke:#181818;stroke-width:1.0;&quot;&gt;&lt;/line&gt;&lt;polygon style=&quot;stroke:#181818;stroke-width:1.0;&quot; points=&quot;222.5,228.5537,226.5,238.5537,230.5,228.5537,226.5,232.5537&quot; fill=&quot;#181818&quot;&gt;&lt;/polygon&gt;&lt;line y2=&quot;292.5225&quot; y1=&quot;272.5225&quot; x2=&quot;226.5&quot; x1=&quot;226.5&quot; style=&quot;stroke:#181818;stroke-width:1.0;&quot;&gt;&lt;/line&gt;&lt;polygon style=&quot;stroke:#181818;stroke-width:1.0;&quot; points=&quot;222.5,282.5225,226.5,292.5225,230.5,282.5225,226.5,286.5225&quot; fill=&quot;#181818&quot;&gt;&lt;/polygon&gt;&lt;line y2=&quot;161.4209&quot; y1=&quot;129.7104&quot; x2=&quot;416&quot; x1=&quot;416&quot; style=&quot;stroke:#181818;stroke-width:1.0;&quot;&gt;&lt;/line&gt;&lt;polygon style=&quot;stroke:#181818;stroke-width:1.0;&quot; points=&quot;412,151.4209,416,161.4209,420,151.4209,416,155.4209&quot; fill=&quot;#181818&quot;&gt;&lt;/polygon&gt;&lt;line y2=&quot;207.3896&quot; y1=&quot;195.3896&quot; x2=&quot;416&quot; x1=&quot;416&quot; style=&quot;stroke:#181818;stroke-width:1.0;&quot;&gt;&lt;/line&gt;&lt;line y2=&quot;207.3896&quot; y1=&quot;207.3896&quot; x2=&quot;491.5&quot; x1=&quot;416&quot; style=&quot;stroke:#181818;stroke-width:1.0;&quot;&gt;&lt;/line&gt;&lt;polygon style=&quot;stroke:#181818;stroke-width:1.0;&quot; points=&quot;487.5,170.0029,491.5,160.0029,495.5,170.0029,491.5,166.0029&quot; fill=&quot;#181818&quot;&gt;&lt;/polygon&gt;&lt;line y2=&quot;207.3896&quot; y1=&quot;117.7104&quot; x2=&quot;491.5&quot; x1=&quot;491.5&quot; style=&quot;stroke:#181818;stroke-width:1.0;&quot;&gt;&lt;/line&gt;&lt;line y2=&quot;117.7104&quot; y1=&quot;117.7104&quot; x2=&quot;451&quot; x1=&quot;491.5&quot; style=&quot;stroke:#181818;stroke-width:1.0;&quot;&gt;&lt;/line&gt;&lt;polygon style=&quot;stroke:#181818;stroke-width:1.0;&quot; points=&quot;461,113.7104,451,117.7104,461,121.7104,457,117.7104&quot; fill=&quot;#181818&quot;&gt;&lt;/polygon&gt;&lt;line y2=&quot;117.7104&quot; y1=&quot;117.7104&quot; x2=&quot;340.5&quot; x1=&quot;381&quot; style=&quot;stroke:#181818;stroke-width:1.0;&quot;&gt;&lt;/line&gt;&lt;polygon style=&quot;stroke:#181818;stroke-width:1.0;&quot; points=&quot;336.5,156.0029,340.5,166.0029,344.5,156.0029,340.5,160.0029&quot; fill=&quot;#181818&quot;&gt;&lt;/polygon&gt;&lt;line y2=&quot;219.3896&quot; y1=&quot;117.7104&quot; x2=&quot;340.5&quot; x1=&quot;340.5&quot; style=&quot;stroke:#181818;stroke-width:1.0;&quot;&gt;&lt;/line&gt;&lt;line y2=&quot;219.3896&quot; y1=&quot;219.3896&quot; x2=&quot;416&quot; x1=&quot;340.5&quot; style=&quot;stroke:#181818;stroke-width:1.0;&quot;&gt;&lt;/line&gt;&lt;line y2=&quot;346.4912&quot; y1=&quot;219.3896&quot; x2=&quot;416&quot; x1=&quot;416&quot; style=&quot;stroke:#181818;stroke-width:1.0;&quot;&gt;&lt;/line&gt;&lt;polygon style=&quot;stroke:#181818;stroke-width:1.0;&quot; points=&quot;412,336.4912,416,346.4912,420,336.4912,416,340.4912&quot; fill=&quot;#181818&quot;&gt;&lt;/polygon&gt;&lt;line y2=&quot;105.7104&quot; y1=&quot;74&quot; x2=&quot;69&quot; x1=&quot;69&quot; style=&quot;stroke:#181818;stroke-width:1.0;&quot;&gt;&lt;/line&gt;&lt;polygon style=&quot;stroke:#181818;stroke-width:1.0;&quot; points=&quot;65,95.7104,69,105.7104,73,95.7104,69,99.7104&quot; fill=&quot;#181818&quot;&gt;&lt;/polygon&gt;&lt;line y2=&quot;346.4912&quot; y1=&quot;139.6792&quot; x2=&quot;69&quot; x1=&quot;69&quot; style=&quot;stroke:#181818;stroke-width:1.0;&quot;&gt;&lt;/line&gt;&lt;polygon style=&quot;stroke:#181818;stroke-width:1.0;&quot; points=&quot;65,336.4912,69,346.4912,73,336.4912,69,340.4912&quot; fill=&quot;#181818&quot;&gt;&lt;/polygon&gt;&lt;line y2=&quot;105.7104&quot; y1=&quot;74&quot; x2=&quot;226.5&quot; x1=&quot;226.5&quot; style=&quot;stroke:#181818;stroke-width:1.0;&quot;&gt;&lt;/line&gt;&lt;polygon style=&quot;stroke:#181818;stroke-width:1.0;&quot; points=&quot;222.5,95.7104,226.5,105.7104,230.5,95.7104,226.5,99.7104&quot; fill=&quot;#181818&quot;&gt;&lt;/polygon&gt;&lt;line y2=&quot;346.4912&quot; y1=&quot;326.4912&quot; x2=&quot;226.5&quot; x1=&quot;226.5&quot; style=&quot;stroke:#181818;stroke-width:1.0;&quot;&gt;&lt;/line&gt;&lt;polygon style=&quot;stroke:#181818;stroke-width:1.0;&quot; points=&quot;222.5,336.4912,226.5,346.4912,230.5,336.4912,226.5,340.4912&quot; fill=&quot;#181818&quot;&gt;&lt;/polygon&gt;&lt;line y2=&quot;105.7104&quot; y1=&quot;74&quot; x2=&quot;416&quot; x1=&quot;416&quot; style=&quot;stroke:#181818;stroke-width:1.0;&quot;&gt;&lt;/line&gt;&lt;polygon style=&quot;stroke:#181818;stroke-width:1.0;&quot; points=&quot;412,95.7104,416,105.7104,420,95.7104,416,99.7104&quot; fill=&quot;#181818&quot;&gt;&lt;/polygon&gt;&lt;line y2=&quot;62&quot; y1=&quot;62&quot; x2=&quot;188&quot; x1=&quot;107.5&quot; style=&quot;stroke:#181818;stroke-width:1.0;&quot;&gt;&lt;/line&gt;&lt;polygon style=&quot;stroke:#181818;stroke-width:1.0;&quot; points=&quot;178,58,188,62,178,66,182,62&quot; fill=&quot;#181818&quot;&gt;&lt;/polygon&gt;&lt;line y2=&quot;62&quot; y1=&quot;62&quot; x2=&quot;377.5&quot; x1=&quot;265&quot; style=&quot;stroke:#181818;stroke-width:1.0;&quot;&gt;&lt;/line&gt;&lt;polygon style=&quot;stroke:#181818;stroke-width:1.0;&quot; points=&quot;367.5,58,377.5,62,367.5,66,371.5,62&quot; fill=&quot;#181818&quot;&gt;&lt;/polygon&gt;&lt;line y2=&quot;35&quot; y1=&quot;30&quot; x2=&quot;275&quot; x1=&quot;275&quot; style=&quot;stroke:#181818;stroke-width:1.0;&quot;&gt;&lt;/line&gt;&lt;line y2=&quot;35&quot; y1=&quot;35&quot; x2=&quot;69&quot; x1=&quot;275&quot; style=&quot;stroke:#181818;stroke-width:1.0;&quot;&gt;&lt;/line&gt;&lt;line y2=&quot;50&quot; y1=&quot;35&quot; x2=&quot;69&quot; x1=&quot;69&quot; style=&quot;stroke:#181818;stroke-width:1.0;&quot;&gt;&lt;/line&gt;&lt;polygon style=&quot;stroke:#181818;stroke-width:1.0;&quot; points=&quot;65,40,69,50,73,40,69,44&quot; fill=&quot;#181818&quot;&gt;&lt;/polygon&gt;&lt;line y2=&quot;62&quot; y1=&quot;62&quot; x2=&quot;516.5&quot; x1=&quot;454.5&quot; style=&quot;stroke:#181818;stroke-width:1.0;&quot;&gt;&lt;/line&gt;&lt;line y2=&quot;206.6514&quot; y1=&quot;62&quot; x2=&quot;516.5&quot; x1=&quot;516.5&quot; style=&quot;stroke:#181818;stroke-width:1.0;&quot;&gt;&lt;/line&gt;&lt;polygon style=&quot;stroke:#181818;stroke-width:1.0;&quot; points=&quot;512.5,196.6514,516.5,206.6514,520.5,196.6514,516.5,200.6514&quot; fill=&quot;#181818&quot;&gt;&lt;/polygon&gt;&lt;line y2=&quot;346.4912&quot; y1=&quot;346.4912&quot; x2=&quot;416&quot; x1=&quot;69&quot; style=&quot;stroke:#181818;stroke-width:1.0;&quot;&gt;&lt;/line&gt;&lt;line y2=&quot;366.4912&quot; y1=&quot;346.4912&quot; x2=&quot;275&quot; x1=&quot;275&quot; style=&quot;stroke:#181818;stroke-width:1.0;&quot;&gt;&lt;/line&gt;&lt;polygon style=&quot;stroke:#181818;stroke-width:1.0;&quot; points=&quot;271,356.4912,275,366.4912,279,356.4912,275,360.4912&quot; fill=&quot;#181818&quot;&gt;&lt;/polygon&gt;&lt;/g&gt;&lt;/svg&gt;" id="N8r-5PFcs76M7vAOWDBv-2">
          <mxCell style="text;whiteSpace=wrap;html=1;" vertex="1" parent="1">
            <mxGeometry x="220" y="710" width="560" height="420" as="geometry" />
          </mxCell>
        </UserObject>
      </root>
    </mxGraphModel>
  </diagram>
</mxfile>
